# xmcd
#
# Track frame offsets:
#	150
#	17748
#	37737
#	50842
#	68838
#	86371
#	108096
#
# Disc length: 1704 seconds
#
# Revision: 1
# Processed by: cddbd v1.5.2PL0 Copyright (c) Steve Scherf et al.
# Submitted via: audiograbber 1.83.01
#
DISCID=4c06a607
DTITLE=SKI'S COUNTRY TRASH - WALKING TALL
DYEAR=2018
DGENRE=Country
TTITLE0=Holding On
TTITLE1=Rock N Roll Dreams
TTITLE2=Free
TTITLE3=Northern Shore
TTITLE4=Rising
TTITLE5=The Bottle
TTITLE6=Dont You Cry On My Grave
EXTD=
EXTT0=
EXTT1=
EXTT2=
EXTT3=
EXTT4=
EXTT5=
EXTT6=
PLAYORDER=
